# xmcd CD database file
#
# Track frame offsets:
#	151
#	18358
#	35059
#	52098
#	61045
#	85347
#	97946
#	115025
#	141989
#	151763
#	164153
#
# Disc length: 2456 seconds
#
# Revision: 1
# Processed by: cddbd v1.5.2PL0 Copyright (c) Steve Scherf et al.
# Submitted via: CDex 1.70beta2
#
DISCID=8c09960b
DTITLE=Le Hot Club de ma Rue - Songe d'Automne
DYEAR=2008
DGENRE=Jazz
TTITLE0=Just One of Those Things
TTITLE1=Songe d'Automne
TTITLE2=Ungertikko Baschepen
TTITLE3=I Wonder Where my Baby is Tonight
TTITLE4=Flambee Montalbanaise
TTITLE5=Ain't Misbehavin'
TTITLE6=Puttin' On The Ritz
TTITLE7=Bei Dir war es Immer so Schon
TTITLE8=Limehouse Blues
TTITLE9=David
TTITLE10=Blue Skies (Hidden Track)
EXTD=YEAR: 2008
EXTT0=
EXTT1=
EXTT2=
EXTT3=
EXTT4=
EXTT5=
EXTT6=
EXTT7=
EXTT8=
EXTT9=
EXTT10=
PLAYORDER=
